:FULLY-SPECIFIED
:FORCE-ALL-JOINTS-BE-3DOF
:DEGREES
713
root 5.47126 21.2293 7.36583 15.1032 -69.3973 5.98101
lfemur -45.8019 10.7071 26.7878
ltibia 123.76 -0 0
lfoot 8.956 -3.76881 0.0128593
ltoes 31.9115 -0 0
rfemur -3.26658 2.97776 8.81494
rtibia 5.76953 -0 0
rfoot 14.1448 2.06183 -0.66177
rtoes 5.52811 -0 0
lowerback 3.32319 -3.12451 -2.29241
upperback -1.48599 -4.4061 -2.61661
thorax -3.44407 -2.18705 -1.08
lowerneck -4.89465 -4.23907 -0.294998
upperneck 3.61649 -5.96966 5.01961
head 2.21234 -2.82784 1.42292
lclavicle 9.34288e-15 3.11997e-14 0
lhumerus 23.6649 -16 6.14072
lradius 68.6918 -0 0
lwrist 25.7352 0 0
lhand -20.3316 -6.13903 -0.0913025
lfingers 7.12502 0 0
lthumb 2.62247 19.8798 -0.0824329
rclavicle 9.34288e-15 3.11997e-14 0
rhumerus -27.6023 -7.58658 -9.76781
rradius 98.1817 -0 0
rwrist -8.07009 0 0
rhand -30.0151 -34.3973 0.110966
rfingers 7.12502 0 0
rthumb -6.60431 -61.4414 0.113503
714
root 5.48112 21.3794 7.58092 13.2288 -66.1187 5.1629
lfemur -48.0048 10.3101 27.9511
ltibia 124.454 -0 0
lfoot 9.44796 -4.17211 0.0172751
ltoes 33.7241 -0 0
rfemur -4.29229 3.15876 8.88431
rtibia 8.4627 -0 0
rfoot 15.31 1.51895 -0.720847
rtoes 6.99732 -0 0
lowerback 3.60826 -3.20609 -2.41298
upperback -1.5695 -4.52933 -2.74802
thorax -3.69066 -2.24821 -1.13521
lowerneck -5.2283 -4.55574 -0.381428
upperneck 3.70528 -6.39777 5.31353
head 2.31409 -3.03707 1.51527
lclavicle 1.11319e-14 3.15026e-14 0
lhumerus 24.1485 -16.9282 6.69084
lradius 71.0053 -0 0
lwrist 27.0856 0 0
lhand -21.5853 -6.42782 -0.0949736
lfingers 7.12502 0 0
lthumb 2.78843 21.2036 -0.0854217
rclavicle 1.11319e-14 3.15026e-14 0
rhumerus -28.4532 -7.93262 -10.8108
rradius 101.994 -0 0
rwrist -8.55616 0 0
rhand -31.602 -36.2461 0.126575
rfingers 7.12502 0 0
rthumb -6.79915 -64.538 0.12644
715
root 5.49097 21.5295 7.79601 -140.605 -87.2103 157.04
lfemur -33.5571 -14.4896 8.51967
ltibia 65.1241 0 0
lfoot 7.43438 -9.44215 0
ltoes 29.8338 0 0
rfemur -33.8349 -1.58686 -1.91882
rtibia 97.0122 0 0
rfoot 21.3635 -20.6634 0
rtoes 42.9309 0 0
lowerback 5.99658 -0.553404 -1.77502
upperback -1.3238 -0.963173 -1.56773
thorax -4.7355 -0.456483 -0.530585
lowerneck -6.88249 -6.45178 -2.43303
upperneck -0.433777 -8.5592 4.89979
head 1.37063 -4.21848 1.65523
lclavicle 1.2921e-14 3.18055e-14 0
lhumerus -1.77093 -20.2407 16.623
lradius 44.6521 0 0
lwrist 22.5382 0 0
lhand -22.2191 -3.35407 0
lfingers 7.12502 0 0
lthumb 4.19717 26.5843 0
rclavicle 1.2921e-14 3.18055e-14 0
rhumerus -10.8552 -1.84384 -27.5558
rradius 99.2563 0 0
rwrist -9.86977 0 0
rhand -26.5547 -33.9151 0
rfingers 7.12502 0 0
rthumb 0.0100137 -783.895 0
716
root 5.44711 21.4025 8.00895 -165.493 -81.7245 173.749
lfemur -35.6926 -16.0803 8.99465
ltibia 66.8621 -0 0
lfoot 8.44776 -10.5935 0.056193
ltoes 31.8558 -0 0
rfemur -36.323 -2.70802 -2.46816
rtibia 102.516 -0 0
rfoot 23.5961 -21.207 0.125426
rtoes 45.733 -0 0
lowerback 6.24882 -0.3047 -1.7461
upperback -1.50499 -0.631141 -1.66659
thorax -5.04425 -0.293822 -0.649554
lowerneck -7.52613 -7.02174 -2.59761
upperneck -0.52485 -9.31391 5.22449
head 1.47306 -4.59728 1.75609
lclavicle 1.45633e-14 2.77351e-14 0
lhumerus -3.76933 -22.0045 18.6822
lradius 47.956 -0 0
lwrist 24.3453 0 0
lhand -23.9568 -3.63118 -0.00239976
lfingers 7.12502 0 0
lthumb 4.61136 28.7148 -0.00228646
rclavicle 1.45633e-14 2.77351e-14 0
rhumerus -10.0306 -2.08743 -29.9778
rradius 103.307 -0 0
rwrist -10.726 0 0
rhand -28.8761 -36.5373 -0.0135828
rfingers 7.12502 0 0
rthumb -0.18212 -67.9882 -0.0128062
717
root 5.40326 21.2755 8.22189 -169.142 -78.0203 176.354
lfemur -37.1185 -17.3368 9.27963
ltibia 67.7357 -0 0
lfoot 9.22187 -11.4758 0.105667
ltoes 33.266 -0 0
rfemur -38.1402 -3.60029 -2.94485
rtibia 106.198 -0 0
rfoot 25.2731 -21.5737 0.225962
rtoes 47.7513 -0 0
lowerback 6.42041 -0.0932013 -1.70892
upperback -1.64087 -0.347798 -1.73272
thorax -5.26468 -0.154946 -0.740208
lowerneck -7.99926 -7.43981 -2.71967
upperneck -0.606313 -9.86609 5.45104
head 1.54326 -4.87559 1.82644
lclavicle 1.62057e-14 2.36648e-14 0
lhumerus -5.44889 -23.2353 20.2212
lradius 50.1486 -0 0
lwrist 25.6211 0 0
lhand -25.193 -3.82229 -0.00442281
lfingers 7.12502 0 0
lthumb 4.9175 30.24 -0.00418184
rclavicle 1.62057e-14 2.36648e-14 0
rhumerus -9.25436 -2.25558 -31.7374
rradius 105.784 -0 0
rwrist -11.3502 0 0
rhand -30.5281 -38.3708 -0.0258147
rfingers 7.12502 0 0
rthumb -0.322144 -70.6971 -0.0237294
718
root 5.3594 21.1486 8.43484 -170.318 -75.6902 177.343
lfemur -37.8979 -18.2634 9.38454
ltibia 67.911 -0 0
lfoot 9.75372 -12.0889 0.146009
ltoes 34.1167 -0 0
rfemur -39.3456 -4.2503 -3.33815
rtibia 108.608 -0 0
rfoot 26.4108 -21.793 0.30458
rtoes 49.0854 -0 0
lowerback 6.51892 0.0751321 -1.66742
upperback -1.73122 -0.121131 -1.76781
thorax -5.40125 -0.0438116 -0.801902
lowerneck -8.30544 -7.7103 -2.80116
upperneck -0.676881 -10.2221 5.58431
head 1.58252 -5.05595 1.86806
lclavicle 1.7848e-14 1.95944e-14 0
lhumerus -6.76563 -23.9821 21.2322
lradius 51.367 -0 0
lwrist 26.3966 0 0
lhand -25.958 -3.9306 -0.00601457
lfingers 7.12502 0 0
lthumb 5.11716 31.2004 -0.00565742
rclavicle 1.7848e-14 1.95944e-14 0
rhumerus -8.55831 -2.35487 -32.8723
rradius 107.167 -0 0
rwrist -11.7491 0 0
rhand -31.5518 -39.4853 -0.0365116
rfingers 7.12502 0 0
rthumb -0.407169 -72.2887 -0.0330168
719
root 5.31555 21.0216 8.64778 -170.659 -74.3947 177.803
lfemur -38.1025 -18.8789 9.32548
ltibia 67.5038 -0 0
lfoot 10.0543 -12.4472 0.176074
ltoes 34.4691 -0 0
rfemur -40.0071 -4.66481 -3.64485
rtibia 110.09 -0 0
rfoot 27.0503 -21.8878 0.364097
rtoes 49.8294 -0 0
lowerback 6.55252 0.199243 -1.62426
upperback -1.77852 0.0473693 -1.77472
thorax -5.46111 0.0388321 -0.835972
lowerneck -8.45607 -7.84404 -2.84531
upperneck -0.736125 -10.3968 5.63246
head 1.59341 -5.14537 1.8836
lclavicle 1.94904e-14 1.55241e-14 0
lhumerus -7.71265 -24.3034 21.744
lradius 51.7453 -0 0
lwrist 26.7184 0 0
lhand -26.2965 -3.96298 -0.00715639
lfingers 7.12502 0 0
lthumb 5.21706 31.6522 -0.00671447
rclavicle 1.94904e-14 1.55241e-14 0
rhumerus -7.95701 -2.39224 -33.4422
rradius 107.738 -0 0
rwrist -11.939 0 0
rhand -32.0082 -39.9624 -0.0456563
rfingers 7.12502 0 0
rthumb -0.438874 -72.9679 -0.040952
720
root 5.27169 20.8946 8.86072 -170.541 -73.9122 178.005
lfemur -37.8078 -19.2122 9.12302
ltibia 66.5983 -0 0
lfoot 10.1449 -12.5753 0.195677
ltoes 34.3881 -0 0
rfemur -40.1949 -4.86518 -3.86762
rtibia 110.858 -0 0
rfoot 27.2472 -21.8763 0.407216
rtoes 50.0679 -0 0
lowerback 6.5298 0.281718 -1.58106
upperback -1.78716 0.161043 -1.75714
thorax -5.45334 0.0946142 -0.845193
lowerneck -8.46826 -7.85648 -2.8563
upperneck -0.784306 -10.4108 5.60599
head 1.57939 -5.15401 1.87632
lclavicle 2.11327e-14 1.14537e-14 0
lhumerus -8.31226 -24.259 21.8108
lradius 51.4054 -0 0
lwrist 26.6426 0 0
lhand -26.2619 -3.9289 -0.0078577
lfingers 7.12502 0 0
lthumb 5.2277 31.6591 -0.00737245
rclavicle 2.11327e-14 1.14537e-14 0
rhumerus -7.45182 -2.37433 -33.5186
rradius 107.66 -0 0
rwrist -11.9428 0 0
rhand -31.968 -39.8864 -0.0533198
rfingers 7.12502 0 0
rthumb -0.422254 -72.8864 -0.0477826
